<?xml version="1.0" encoding="utf-8"?>
<!-- Generator: Adobe Illustrator 23.1.0, SVG Export Plug-In . SVG Version: 6.00 Build 0)  -->
<svg version="1.1" id="Calque_1" xmlns="http://www.w3.org/2000/svg" xmlns:xlink="http://www.w3.org/1999/xlink" x="0px" y="0px"
	 width="700px" height="700px" viewBox="0 0 700 700" style="enable-background:new 0 0 700 700;" xml:space="preserve">
<style type="text/css">
	.st0{fill:#36749D;}
</style>
<g>
	<path class="st0" d="M227,177.1c2.5,8.4,3.7,17.1,3.4,25.8c-0.2,4.4-0.6,8.7-1.4,13.1c-0.3,1.6-1.6,4.5-1.1,6.1
		c0.9-0.5,1.7-1.3,2.3-2.2c0.6-0.9,0.9-2,0.9-3.1l-1.8,2.7c-0.6,0.8-0.7,0.7-1.1,1.6c-0.2,0.8-0.3,1.7-0.3,2.5
		c-0.1,1.5-0.1,3.1,0,4.6c0.1,1.9,0.6,3.7,1.5,5.4c0.9,1.6,2.1,3.1,3.6,4.3c1.8,1.5,3.5,3.2,4.9,5c0.8,1.2,1.5,2.5,1.8,3.9
		c0.3,1.4,0.4,2.9,0.1,4.3c-0.4,1.5-1.2,2.9-2.4,4c-1,0.9-2,1.6-2.6,2.1c-0.5,0.4-0.9,0.9-1.2,1.5c-0.2,0.7-0.3,1.5-0.3,2.3
		c0,4.5-0.4,8.9-1.4,13.3c-0.9,4.4-2.1,8.6-3.4,12.7c-1.2,4.2-2.6,8.4-4.2,12.5c-1.7,4.3-4.2,8.2-7.3,11.6c-3.2,3.5-7.3,6-11.9,7.3
		c-8.9,2.7-18.2,1.3-26.5-1.1c-8.3-2.4-16.3-5.8-24.7-7.7c8.7,0.7,17,3.5,25.4,5.1c8.4,1.6,16.9,2.3,24.5-0.3
		c3.7-1.3,7.1-3.6,9.7-6.5c2.6-3.1,4.6-6.6,6-10.4c1.5-3.9,2.8-8,3.9-12c1.2-4.1,2.3-8.2,3.2-12.3c0.9-4.1,1.4-8.2,1.4-12.4
		c0-1.4,0.2-2.8,0.7-4.1c0.6-1.4,1.5-2.6,2.8-3.6c1-0.8,1.9-1.4,2.4-1.9c0.5-0.4,0.8-0.9,0.9-1.4c0.2-1.5-0.1-3-1-4.2
		c-1.2-1.6-2.5-3-4-4.3c-1.8-1.6-3.3-3.6-4.4-5.7c-1-2.2-1.6-4.6-1.6-7.1c0-4.5,0.7-9,1.9-13.3C228.6,202.7,229.1,189.7,227,177.1
		L227,177.1z"/>
	<path class="st0" d="M168.7,316.5l-1.4,12c-0.4,3.9-0.6,7.8-0.7,11.6c-0.1,3.9,0,7.7,0.4,11.6c0.3,3.9,1.1,7.7,1.7,11.9
		c-2.7-3.2-4.7-7-5.9-11c-1.2-4.1-1.8-8.3-1.6-12.5c0.1-4.2,0.8-8.4,2-12.4C164.4,323.7,166.2,319.9,168.7,316.5L168.7,316.5z"/>
	<path class="st0" d="M219.7,222.3c-1.5,0.6-3,1.3-4.4,2.1l-3.7,2c-1.2,0.6-2.5,1.4-3.9,2c-1.5,0.8-3.1,1.4-4.8,1.8
		c0.1-0.9,0.4-1.9,0.7-2.7c0.4-0.8,0.8-1.6,1.3-2.3c1.1-1.5,2.5-2.7,4.1-3.5c1.7-0.9,3.5-1.3,5.4-1.3c1,0,1.9,0.1,2.8,0.5
		C218.2,221.1,219,221.6,219.7,222.3L219.7,222.3z"/>
	<path class="st0" d="M213.4,233.7c2.3,0,4.2-2.5,4.2-5.6c0-3.1-1.9-5.6-4.2-5.6s-4.2,2.5-4.2,5.6
		C209.2,231.1,211,233.7,213.4,233.7z"/>
	<path class="st0" d="M227.5,275.7c-1.1,1.6-2.8,2.8-4.7,3.3c-1.9,0.5-3.8,0.5-5.7,0c-1.8-0.5-3.5-1.4-4.9-2.7
		c-1.4-1.3-2.5-2.9-3-4.7c1.7,0.2,3.4,0.6,5.1,1l4.2,1.1l4.1,1C224,275.1,225.5,275.4,227.5,275.7z"/>
	<path class="st0" d="M215,279.8c1.4,0.3,2.6,0.7,3.9,1.1l1.9,0.5c0.6,0.2,1.3,0.3,2,0.5c-1.3,0.6-2.8,0.7-4.2,0.3
		C217.1,281.8,215.9,281,215,279.8L215,279.8z"/>
	<path class="st0" d="M222.5,211.7c-3.7-0.1-7.5,0.7-10.9,2.3c-3.4,1.5-6.4,3.8-8.9,6.7c0.4-2,1.3-3.9,2.7-5.4
		c1.4-1.6,3.1-2.8,5-3.7c1.9-0.9,3.9-1.4,6-1.4C218.6,210.2,220.6,210.8,222.5,211.7z"/>
	<path class="st0" d="M145.2,271.2l8.5-50.6l37.7-7.7c29.8-6.3,38-37.4,38-37.4s-0.9-20.5-36.3-44.4c-35.4-23.9-118.2-6.8-134,21.7
		s-12.1,117.6,0,126.7C71.1,288.6,87,306,87,306l15.8-0.1C159.6,308.7,145.3,271.2,145.2,271.2"/>
	<path class="st0" d="M157.2,266.7c-3.5,2.7-7.7,5.6-12,4.6c-4-0.9-6.5-4.8-7.9-8.7c-1.3-4-1.8-8.2-1.3-12.3
		c0.5-4.2,1.8-8.2,3.9-11.8c0.4-0.8,1-1.5,1.8-2c0.8-0.3,1.7-0.4,2.6-0.3c3.2,0.3,6.4,1.3,9.2,2.9c2.9,1.6,5.4,3.7,7.4,6.3
		c0.4,6.3,0.4,12.5-0.1,18.8c0,0.8-0.2,1.7-0.6,2.4C159.7,267.3,158.1,267,157.2,266.7z"/>
	<path class="st0" d="M639.4,679.7c-5-7.2-8.7-15.3-11.1-23.7c-5-17-5.4-35-1.3-52.3c2-8.6,5.3-16.8,10-24.3
		c-1.5,8.6-2.9,16.9-3.7,25.3c-1.6,16.6-1.2,33.4,1.2,49.9C635.7,662.9,637.5,671.2,639.4,679.7z"/>
	<path class="st0" d="M540.6,194.5c10.2,13.1,31.2,47.4,24.5,105.6c0,0,24,18.3,10.6,77.8c-13.5,59.6-34.6,73-70.2,63.4
		c0,0-15.4,3.9-15.4-9.6c0-13.5,18.2-7.3,16.8,1.2c0,0,33.4,13.9,46.8-16c13.4-29.8,34-123.5-8.7-100.6
		c-42.7,22.9-25.2,101.1-18.6,107.8c6.7,6.7,13.7,19.2,39.8,9.8c0,0,11.8-16.2,16.6-0.9c4.7,15.3-12.8,14.9-19.9,11.3
		c-7.1-3.7-47.8,7.2-54.5-37.8c-6.6-45,18.9-86.7,18.9-86.7s11.6-12.6,24.7-16.2c13.1-3.6,3.8-91.5-17.6-100.5
		c-0.6-1.9-0.9-3.8-1.1-5.8c-0.1-0.9,0.1-1.7,0.6-2.5c0.5-0.7,1.2-1.3,2-1.6c0.8-0.3,1.7-0.3,2.6,0
		C539.3,193.3,540,193.8,540.6,194.5L540.6,194.5z"/>
	<path class="st0" d="M417.9,230.3c-4,3.7-7.8,7.7-11.3,11.9c-3.5,4.1-6.7,8.5-9.6,13.1c-5.7,9.1-10.1,18.9-13.1,29.2l-4.6-4.4
		c5.6-2,11.4-3.6,17.3-4.6c5.9-1,11.8-1.5,17.8-1.5h0.2c0.8,0,1.5,0.3,2.1,0.9c0.6,0.6,0.9,1.3,0.9,2.1c0,0.7-0.3,1.4-0.8,2
		l-15,16.7l-0.7-2.7c18.3,10.1,32.8,25.4,44.6,42.5c5.9,8.6,10.9,17.7,15,27.3c2.1,5,3.6,10.2,4.3,15.6c0.7,5.3,0.9,10.5,0.8,15.8
		c-0.1,20.5-1.6,41-4.6,61.3c-1.4,10.2-3.4,20.3-5.2,30.2c-2.1,9.9-3,20-2.7,30.1c0,0.1,0,0.1,0,0.2c0,0,0,0.1,0,0.1l-0.1,0.1h-0.1
		c-0.1,0-0.2,0-0.3,0c-0.1-0.1-0.1-0.1-0.2-0.2c-2.1-10.1-2.6-20.6-1.6-30.9l2.7-30.5c1.6-20.2,2.9-40.5,3.8-60.7
		c0.3-4.9,0.2-9.8-0.2-14.7c-0.5-4.8-1.6-9.5-3.3-14c-1.6-4.6-3.6-9.3-5.6-13.9c-2-4.6-4.2-9.1-6.7-13.5
		c-4.8-8.9-10.8-17.1-17.8-24.3c-3.5-3.6-7.3-6.9-11.4-9.8c-4.1-2.9-8.5-5.3-13.1-7.3c-0.4-0.2-0.7-0.6-0.9-1
		c-0.2-0.4-0.2-0.9,0-1.3l0.2-0.3l13.3-18.4l2.4,4.9c-5.6,0.5-11.2,1.4-16.8,2.5c-5.5,1.1-10.9,2.6-16.2,4.3
		c-0.4,0.1-0.9,0.2-1.4,0.2c-0.5,0-0.9-0.2-1.3-0.4c-0.4-0.2-0.8-0.5-1.1-0.9c-0.3-0.4-0.5-0.8-0.7-1.2c-0.2-0.7-0.2-1.4,0-2.1
		c3.4-10.9,8.7-21.1,15.6-30.2c3.4-4.5,7.3-8.7,11.4-12.5c4.2-3.8,8.7-7.2,13.5-10.1c0,0,0.1,0,0.1,0h0.2c0,0,0.1,0,0.1,0
		c0,0,0,0,0.1,0.1c0,0.1,0,0.2,0,0.3c-0.1,0.1-0.1,0.1-0.2,0.2C418.1,230.3,418,230.3,417.9,230.3L417.9,230.3z"/>
	<path class="st0" d="M307.9,556.6c-7.4-4.9-14.9-9.7-22.3-14.6c-3.8-2.4-7.4-5-11-7.8c-3.5-2.9-6.7-6.2-9.6-9.8
		c-11.2-14.6-16.5-33-14.9-51.4c0.7-9.3,3.7-18.4,8.6-26.4c1.4-2,2.7-3.8,3.9-5.6c1.2-1.8,2.4-3.6,3.7-5.4c2.4-3.7,4.7-7.4,6.7-11.2
		c8.7-14.9,14-31.6,15.4-48.9c1.5-18,4.9-35.8,10.2-53c5.2-17.6,13.8-33.9,25.4-48.2c6-7.1,13-13.3,20.9-18.2
		c3.9-2.5,8.1-4.6,12.4-6.3c2.1-0.9,4.4-1.6,6.5-2.4l6.3-2c8.4-2.7,16.8-5.6,25-8.7c4.1-1.5,8.2-3.1,12.2-4.9c2-0.9,4-1.7,5.8-2.7
		l2.7-1.5c0.3-0.2,0.6-0.4,0.9-0.7c-0.1,0.3-0.2,0.6-0.2,0.9c0,0.4,0,0.8,0.2,1.1c0.1,0.2,0.2,0.4,0.4,0.6c0.2,0.3,0.5,0.5,0.8,0.7
		l4.3-3.7c3.5,10.4,6.9,20.8,10.2,31.3c3.3,10.5,6.5,20.9,9.5,31.5c3,10.6,5.9,21.1,8.6,31.7c1.3,5.4,2.7,10.7,3.7,16
		c1.2,5.3,1.9,10.8,2,16.2c-0.6-5.4-1.6-10.8-3.2-16.1c-1.4-5.3-2.9-10.6-4.5-15.8c-3.3-10.5-6.6-20.8-10.2-31.2
		c-3.6-10.4-7.1-20.7-10.8-31l-11.1-30.8c-0.2-0.6-0.2-1.2-0.1-1.8c0.2-0.6,0.5-1.1,1-1.5c0.5-0.4,1-0.6,1.6-0.7
		c0.6,0,1.2,0.1,1.8,0.4c0.7,0.4,1.2,0.9,1.5,1.6c0.2,0.5,0.3,1,0.3,1.5c-0.1,0.6-0.2,1.1-0.5,1.6c-0.3,0.5-0.6,0.9-1,1.3
		c-0.5,0.5-1.1,1-1.6,1.4c-1.1,0.8-2.1,1.4-3.1,2c-2.1,1.2-4.1,2.2-6.2,3.1c-4.1,1.9-8.2,3.6-12.4,5.4c-8.3,3.3-16.7,6.3-25.1,9.2
		l-6.3,2.2c-2.1,0.7-4,1.4-6,2.2c-3.9,1.6-7.6,3.6-11.2,5.9c-7.1,4.6-13.5,10.3-18.9,16.8c-11,13.1-18.4,29.1-23.7,45.5
		c-5.2,16.7-8.6,33.9-10.2,51.3c-0.8,9.1-2.7,18.2-5.7,26.8c-3,8.6-6.8,16.9-11.4,24.7c-2.3,3.9-4.8,7.7-7.3,11.4
		c-1.3,1.8-2.7,3.7-3.9,5.4c-1.2,1.7-2.7,3.6-3.9,5.4c-4.6,7.1-7.5,15.2-8.4,23.6c-2,17.2,2.3,34.5,12.1,48.7
		c2.5,3.5,5.4,6.8,8.5,9.8c3.3,2.9,6.8,5.6,10.4,8.2C293.7,545.9,300.8,551.3,307.9,556.6z"/>
	<path class="st0" d="M458.9,362.9c0.5-17.7,4.1-35.3,10.8-51.7c1.7-4.2,3.7-8.2,6-12.1c1.2-1.9,2.4-3.8,3.7-5.7l2.1-2.7l2.1-2.5
		c5.4-6.6,11.1-13.3,16.3-20.2c5.3-6.9,10.2-14.1,14.7-21.6c4.5-7.4,8.4-15.2,11.9-23.1c1.6-4,3.3-8,4.6-12
		c1.4-3.6,2.1-7.5,2.1-11.3c-0.3-3.5-2-6.7-4.6-8.9c-1.4-1.1-2.9-2-4.6-2.7c-1.6-0.7-3.3-1.3-5-1.6l4.6-4.7c0.9,5,1.2,10.1,1.1,15.3
		c-0.1,2.7-0.4,5.3-0.9,7.9c-1.4,6.4-4.1,12.5-7.9,17.9c-3.8,5.4-8.7,9.9-14.3,13.4c-8.9,5.1-19,7.7-29.3,7.7
		c-9.8,0-19.6-1.5-29.1-4.4c0,0-0.1,0-0.1,0l-0.1-0.1c0,0,0-0.1,0-0.1c0,0,0-0.1,0-0.1c0-0.1,0.1-0.2,0.2-0.2c0.1,0,0.2,0,0.3,0
		c9.5,1.1,19,1.2,28.5,0.2c9.1-0.9,17.8-4,25.5-8.9c7.3-5,12.8-12.2,15.9-20.5c0.8-2,1.4-4.1,1.9-6.3c0.4-2.1,0.7-4.3,0.8-6.4
		c0.2-4.5,0-9-0.6-13.5v-0.3c-0.1-0.5-0.1-1.1,0-1.6c0.2-0.8,0.6-1.5,1.2-2c0.6-0.5,1.4-0.9,2.2-0.9c0.4-0.1,0.9-0.1,1.3,0
		c2.5,0.5,5,1.3,7.3,2.5c2.3,1.1,4.5,2.6,6.4,4.3c3.9,3.7,6.2,8.7,6.4,14c0.1,2.6-0.3,5.1-1.2,7.5c-0.7,2.2-1.5,4.3-2.5,6.4
		c-1.8,4-3.9,8-6.2,11.8c-8.9,15.2-18.5,29.7-27.3,44.8c-4.5,7.5-9,15.1-14.1,22.3l-2,2.7l-1.7,2.6c-1.2,1.6-2.3,3.5-3.3,5.3
		c-2.2,3.6-4.1,7.4-5.9,11.2c-6.9,15.8-12.4,32.2-16.5,49c0,0.1-0.1,0.2-0.2,0.2c0,0-0.1,0-0.2,0c-0.1,0-0.1,0-0.2,0
		c-0.1,0-0.1,0-0.1,0c0,0-0.1,0-0.1-0.1c-0.1,0-0.1-0.1-0.2-0.2C459,363.1,458.9,363,458.9,362.9L458.9,362.9z"/>
	<path class="st0" d="M460.9,365.2c3.6-6.5,7.6-12.6,11.7-18.7c4.1-6.1,8.5-12,12.9-17.8c4.5-5.8,9.1-11.5,14.1-17
		c4.9-5.6,10.2-10.9,15.8-15.8l-0.6,5.2c-1.8-2.7-3.6-5.2-5.4-7.8l-2.7-3.8c-0.8-1.1-1.7-2.1-2.7-3.1l-0.3-0.3
		c-0.3-0.3-0.6-0.7-0.8-1.2c-0.3-0.7-0.3-1.4-0.2-2.1c0.1-0.7,0.5-1.3,1-1.8c0.4-0.4,0.9-0.7,1.4-0.9c0.5-0.2,1.1-0.2,1.6-0.1
		c4.4,0.7,8.7,1.5,12.9,2.4c4.3,0.9,8.5,1.9,12.8,3.1c4.2,1.2,8.4,2.5,12.5,4c4.2,1.5,8.1,3.4,11.9,5.7c-4.1-1.3-8.4-2.3-12.6-3
		c-4.2-0.8-8.5-1.4-12.8-2l-12.8-1.6l-12.8-1.5l2.7-6.4c1.4,1.2,2.7,2.6,3.9,4c1.1,1.3,2.1,2.5,3.1,3.8c2,2.7,3.9,5.2,5.8,7.9
		c0.6,0.8,0.8,1.7,0.7,2.7c-0.1,0.9-0.5,1.8-1.2,2.5c-5.2,4.8-10.3,9.9-15.2,15.2c-4.9,5.3-9.9,10.6-14.7,16L476.2,349
		C471,354.5,466.1,359.9,460.9,365.2z"/>
	<path class="st0" d="M382.9,284.7c-5.4,17.2-7.1,36.2-10,54.1c-8.3-0.6-14.3,8.2-16.7,16c-1.9,6.2-2.7,13.3,0.5,18.9
		c5,8.6,18.7,9.5,25.8,2.5c7.1-7,7.2-19.3,1.5-27.6c-1.5-1.7-2.6-3.8-3.3-6c-0.1-1.5,0-3.1,0.5-4.6c3.8-18.6,14.1-37.1,18-55.6
		c-5.5,0.2-10.9,1-16.2,2.3"/>
	<path class="st0" d="M560.1,232.4c22.2,7.5,44.2,15.6,66.1,24l8.2,3.3l4.1,1.6l2.1,0.8c0.7,0.3,1.4,0.7,2.2,1
		c5.7,2.8,10.7,6.7,14.9,11.4c8.2,9.2,14,20.3,17,32.2c1.5,5.8,2.5,11.8,2.9,17.8c0.5,6.1,0.4,11.8,0.5,17.8v35.1
		c0.1,11.7,0.4,23.4,1.2,35.1c0.4,5.8,0.8,11.6,1.6,17.4c0.8,5.8,1.7,11.4,2.4,17.4c1.4,11.8,2,23.6,1.8,35.4
		c-0.2,11.9-1.3,23.8-3.4,35.5c-2,12-5.7,23.6-11,34.5c-2.8,5.6-6.3,10.8-10.6,15.4c-4.3,4.8-9.6,8.6-15.5,11.3
		c-1.5,0.6-3.1,1.2-4.5,1.6l-4.2,1.3c-2.7,0.9-5.7,1.7-8.5,2.5c-2.9,0.8-5.7,1.6-8.6,2.3c-2.9,0.6-5.8,1.4-8.7,1.9
		c-11.6,2.4-23.5,4-35.3,4.5c-23.7,1.3-47.4-2-69.9-9.8l0.2-0.8c22.7,5.3,46,6.7,69.2,4.3c11.6-1.2,23-3.2,34.3-5.9
		c2.7-0.7,5.6-1.4,8.4-2.2c2.8-0.8,5.6-1.5,8.3-2.4c2.8-0.9,5.5-1.6,8.3-2.7l4.1-1.4c1.3-0.5,2.4-1,3.7-1.5
		c4.8-2.2,9.1-5.3,12.7-9.2c3.7-4.1,6.8-8.6,9.4-13.5c5.2-10.1,8.9-20.9,11-32c4.4-22.7,6-45.9,4.7-69c-2.5-23.2-2.7-46.9-3.4-70.2
		c-0.4-11.7-1-23.4-1.9-35.1c-0.5-5.8-0.8-11.7-1.6-17.3c-0.8-5.6-2-11.2-3.7-16.6c-3.2-10.7-8.5-20.7-15.8-29.2
		c-3.6-4.1-7.9-7.5-12.7-10l-1.8-0.9l-2-0.9l-4-1.7l-8.2-3.4c-21.7-9.5-42.9-19.2-64.1-29.3L560.1,232.4z"/>
	<path class="st0" d="M655.2,283.5c-4.4-0.9-9-0.4-13.1,1.5c-4,1.9-7.5,4.6-10.4,7.9c-5.6,6.9-9.9,14.7-12.7,23.2
		c-5.6,17.2-9.9,34.7-12.9,52.5c-3.2,17.8-5.8,35.7-7.6,53.7c-0.9,9-1.6,18-1.9,26.9v9.8l0.3,3c0.8,4.3,1.9,8.8,2.7,13.2l1.6,8.2
		l-7.1-4c-1.7-1-3.5-1.7-5.4-2.2c-0.7-0.2-1.3-0.2-2-0.2h-0.2v0.2l-0.5,1.2c-0.3,0.7-0.7,1.4-1.1,2c-0.7,1.1-1.5,2.2-2.4,3.1
		c-1.7,1.8-3.5,3.5-5.4,5c-3.7,3.1-7.8,5.7-12.2,7.8c-2.3,1.1-4.7,2-7.3,2.4c-1.5,0.2-2.3,0.2-3.5,0.4l-3.3,0.5
		c-9,1.4-18,3.1-27,4.9c-4.5,1-8.9,1.9-13.5,3.1c-4.5,1-8.9,2.4-13.1,4.3c3.9-2.4,8.1-4.4,12.5-5.8c4.4-1.6,8.7-3,13.1-4.4
		c8.9-2.7,17.7-5,26.8-7l3.4-0.7c1.1-0.2,2.7-0.4,3.3-0.6c2-0.5,3.9-1.3,5.7-2.2c3.8-2.1,7.3-4.6,10.6-7.5c1.6-1.4,3.1-2.9,4.4-4.6
		c0.6-0.7,1.2-1.5,1.6-2.4c0.2-0.3,0.4-0.7,0.5-1c0-0.1,0.1-0.3,0.2-0.4c0.1-0.5,0.3-1,0.5-1.4c0.2-0.5,0.5-1,0.9-1.4
		c0.3-0.5,0.8-0.9,1.3-1.2c0.9-0.6,1.9-1.1,2.9-1.3c1.6-0.3,3.3-0.2,4.9,0.2c2.6,0.6,5.1,1.5,7.4,2.7l-5.4,4
		c-1.1-4.5-2.2-8.8-3.3-13.5l-0.5-3.8c0-1.2,0-2.4-0.2-3.6c-0.2-2.4,0-4.7,0-7.1c0.1-9.3,0.8-18.4,1.6-27.6
		c1.9-18.2,4.8-36.3,8.6-54.2c1.9-9,4-18,6.5-26.7c2.4-8.9,5.4-17.6,9-26.1c3.4-8.7,8.6-16.7,15.1-23.4c3.4-3.3,7.4-5.8,11.9-7.4
		C645.6,281.8,650.6,281.8,655.2,283.5z"/>
	<path class="st0" d="M449.5,521.2c14-6.7,29.1-10.8,44.6-12c2.2-0.2,4.5,0.1,6.6,0.7c1.3,0.4,2.5,1.1,3.5,1.9
		c1,0.9,1.9,1.9,2.5,3.1c0.9,1.9,1.6,3.9,2.1,5.9c0.6,1.9,1.1,3.8,1.6,5.7c3.5,15.6,3.1,31.7-1.3,47.1c-1.1,3.8-2.4,7.6-4,11.2
		l-1.2,2.7c-0.3,0.8-0.7,1.5-1.2,2.1c-0.8,1-1.9,1.7-3.1,2.1c-0.7,0.2-1.4,0.3-2.1,0.4H496c-1.1,0.1-2.2,0.1-3.3,0
		c-4.3-0.4-8.4-1.6-12.2-3.6c-3.7-1.8-7-3.9-10.2-5.8c-6.5-4-12.7-7.9-19.5-8.8l-4-0.6l1.6-3.5c6.8-15,8.1-32,3.6-47.9
		c3.7,7.7,5.7,16.1,5.9,24.6c0.2,4.3-0.1,8.7-0.8,12.9c-0.7,4.3-1.8,8.5-3.4,12.6l-2.4-4c8.6,0.7,15.9,4.7,22.5,8.5
		c6.6,3.7,13.1,7.3,19.5,7.8c0.8,0.1,1.6,0.1,2.4,0h1.9c-0.3,0.1-0.5,0.3-0.7,0.5l0.1-0.4l1.1-2.5c1.4-3.4,2.6-6.8,3.6-10.4
		c2.1-7,3.3-14.3,3.6-21.6c0.4-7.3,0-14.7-1.3-21.9c-0.4-1.8-0.7-3.6-1.1-5.4c-0.4-1.7-0.8-3.3-1.4-4.9c-0.2-0.5-0.5-1-0.9-1.4
		c-0.4-0.4-0.9-0.7-1.4-0.9c-1.5-0.5-3.1-0.8-4.6-0.8C479.3,514.8,464.2,517,449.5,521.2L449.5,521.2z"/>
	<path class="st0" d="M596.4,476.1c4.1,0.7,8.2,2,11.9,3.9c3.7,1.8,7.2,3.9,10.6,6.3c3.4,2.5,6.4,5.3,9.1,8.5c3,3.2,5,7.2,5.8,11.4
		c-3.4-2.7-6.7-4.5-10-6.7c-3.3-2.2-6.5-4.4-9.7-6.7c-3.2-2.3-6.3-4.9-9.2-7.6C601.7,482.4,598.9,479.4,596.4,476.1z"/>
	<path class="st0" d="M336.1,312.6c1.4,12.4,2.4,24.7,3.3,37.1c0.9,12.3,1.6,24.7,2.3,37l2,37c0.8,12.2,1.4,24.6,3.1,36.5v0.6
		c-0.2,7.2-0.5,14.4-0.9,21.6l-0.3,4.7l-3.5-2.9c-1.9-1.6-3.9-3.1-6-4.4c-2.1-1.4-4.3-2.6-6.5-3.7c-4.5-2.4-9.5-3.7-14.6-3.9
		c2.6-0.4,5.2-0.5,7.8-0.3c2.6,0.3,5.2,0.9,7.8,1.6c2.5,0.8,5,1.8,7.4,3c2.4,1.2,4.7,2.5,7,4l-3.7,1.8c-0.4-7.2-0.7-14.4-0.9-21.6
		v0.6c-1.4-6.3-2.2-12.5-2.9-18.7c-0.8-6.2-1.2-12.4-1.7-18.6c-0.9-12.4-1.3-24.8-1.6-37.2c-0.3-12.4-0.2-24.8,0-37.2
		C334.2,337.3,334.9,325,336.1,312.6z"/>
	<path class="st0" d="M343.5,482.5c3.2,1,6.2,2.5,8.9,4.5c2.6,1.9,5,4,7.2,6.3c2.2,2.3,4.1,4.9,5.8,7.7c1.7,2.9,3,6.1,3.6,9.4
		c-3-1.4-5.9-3.1-8.4-5.2c-2.5-1.9-4.8-4.1-6.9-6.4c-2.1-2.3-4.1-4.8-5.8-7.4C346,488.6,344.5,485.6,343.5,482.5z"/>
	<path class="st0" d="M521.8,182.8c-4.2-6.6-8-13.5-11.2-20.6c-3.4-7.2-5.9-14.7-7.3-22.5v-0.7c2.2-6.9,3.4-14,3.6-21.2
		c0.1-3.4-0.5-6.7-1.9-9.8c-1.4-3.1-3.4-6-5.8-8.5c-1.1-1.2-2.4-2.3-3.8-3.3c-1.2-0.8-2.6-1.3-4-1.5c-0.6,0-1.1,0.1-1.6,0.3
		c-0.5,0.2-1,0.6-1.4,1c-0.9,1.1-1.5,2.4-1.9,3.8c-1.2,6.3,0.5,13.8,2.7,20.3l0.6,1.9l-1.6,1c-5.2,3-10.4,5.9-15.6,8.9l-2.5,1.4
		l-0.8-2.7c-1-3.2-2.2-6.3-3.6-9.4c-1.3-3-3-5.7-5.2-8.2c-0.9-1.1-2.1-1.9-3.5-2.4l-0.9-0.2H452c-1.8,0-3.6-0.2-5.4-0.5
		c-2.1-0.3-4-1.3-5.4-2.9c-1.3-1.6-2.1-3.4-2.4-5.4c-0.4-1.8-0.5-3.6-0.6-5.4c0.1-3.4-0.1-6.9-0.5-10.3c-0.1-3.3-1.3-6.5-3.3-9.1
		c-1.2-1-2.6-1.8-4.2-2.1c-1.6-0.3-3.2-0.2-4.7,0.2c-6.6,1.8-12.8,4.7-18.5,8.6l-17.7,10.8c-5.9,3.9-12.1,7.2-18.6,9.8
		c-6.7,2.4-13.8,3.6-21,3.4l1.6-2c1.2,5.8,2.8,11.6,4.7,17.2c1.6,5.5,4,10.8,7.2,15.6c3.6,4.4,8.3,8.6,11.9,13.7
		c4,5.2,6.5,11.3,7.3,17.7c0.1,2.8,0.5,5.6,1.3,8.3c0.9,2.6,2.2,5,3.8,7.2c3.6,4.6,7.7,8.7,12.3,12.2c1.2,1,2.3,1.9,3.6,3l1,1
		l0.7,0.8c0.4,0.4,0.8,0.8,1.3,1.1c1.4,1,2.7,2.2,3.8,3.5c1.1,1.2,2,2.5,2.9,3.8c1.8,2.5,3.5,5.1,5.2,7.6c1.6,2.4,3.3,4.7,5.2,6.9
		c3.4,4.2,8.2,7.2,13.5,8.4c5.4,0.7,10.9-0.3,15.8-2.8c5.1-2.8,9.7-6.3,13.9-10.3c4.4-4,8.5-8.3,12.4-12.8
		c7.5-9.1,14.9-18.8,18.5-29.9c1.4-5.7,1.8-11.6,1.1-17.4c-0.3-5.9-2-11.7-4.9-16.8l-0.4-0.7l0.7-0.2c2.7-0.6,5.3-1.4,7.8-2.4
		l0.2,0.5c-2.5,1.2-5.1,2.2-7.8,3l0.3-0.9c3.3,5.2,5.4,11.1,6,17.3c0.4,3,0.7,6.1,0.7,9.2c0,1.5,0,3.1-0.2,4.6l-0.3,2.4
		c-0.1,0.8-0.3,1.6-0.6,2.3c-3.4,12.1-10.5,22.4-18.1,31.9c-3.9,4.8-8,9.3-12.4,13.5c-4.4,4.4-9.3,8.3-14.7,11.4
		c-2.9,1.6-6,2.7-9.2,3.4c-3.3,0.7-6.7,0.8-10,0.3c-6.6-1.4-12.5-4.9-16.8-10c-2.1-2.4-4-4.9-5.7-7.6c-1.6-2.5-3.3-5-4.9-7.3
		c-1.5-2.3-3.3-4.3-5.4-6c-0.8-0.5-1.5-1.1-2.1-1.8c-0.3-0.3-0.7-0.8-0.8-0.9l-0.6-0.6c-1-0.9-2.2-1.9-3.3-2.9
		c-4.9-3.9-9.3-8.5-13.1-13.5c-1.9-2.7-3.5-5.6-4.5-8.8c-0.8-3.1-1.2-6.3-1.1-9.5c-0.6-5.6-2.8-10.9-6.1-15.4
		c-3.3-4.8-7.5-8.8-11.4-13.8c-3.4-5.3-5.9-11.1-7.5-17.2c-1.7-5.9-3.1-11.8-4.1-17.8l-0.4-2.1h2.1c6.8,0.4,13.5-0.4,20-2.5
		c6.4-2.4,12.6-5.4,18.4-9.1l17.9-10.8c3-1.7,6-3.5,9.1-5.1c3.1-1.7,6.5-2.9,9.9-3.7c1.8-0.4,3.6-0.5,5.4-0.3
		c1.9,0.3,3.7,1.2,5.1,2.5c2.3,2.9,3.7,6.4,3.9,10.1c0.5,3.5,0.6,7,0.8,10.4c0,3.2,0.9,6.3,2.7,8.9c1.8,2,5.3,2,8.7,2h4
		c0.6,0,1.1,0.1,1.6,0.3c2,0.6,3.8,1.6,5.2,3.1c2.6,2.6,4.7,5.7,6.3,9c1.6,3.2,3,6.5,4.1,9.9l-3.3-1.3c5.2-3.1,10.3-6.2,15.5-9.2
		l-1,2.9c-1.2-3.6-2.1-7.4-2.7-11.2c-0.7-3.9-0.7-8,0-11.9c0.5-2.2,1.5-4.2,3-5.9c0.9-0.9,1.9-1.6,3.1-2.1c1.2-0.5,2.4-0.7,3.7-0.6
		c4.2,0.7,8.1,2.9,10.8,6.3c2.7,2.9,4.8,6.2,6.4,9.8c1.6,3.7,2.3,7.7,2,11.6c-0.5,7.5-2.1,15-4.6,22.1v-0.7c1.2,7.6,3.3,15,6.2,22.1
		c2.9,7.2,6.1,14.3,9.8,21.1L521.8,182.8z"/>
	<path class="st0" d="M350.3,106.1c0,0-17.8-1.6-9.8-20.9c8-19.3,72.6-85.6,99.8-59.2l6.1,4.5c0,0,13.9-8.6,24.3,0
		c10.4,8.6,44.9,9,43.5,88.8c0,0-0.4,11.2-6.8,18.2l-0.5-4.8c0,0,5.2-19.3,0.8-24.3c-3.7-4.4-7.2-9-10.4-13.8l-8-1.9l-4.7,5.4
		l-0.7,9.3l3,13.5l-15.6,9l-6.3-13.9l-8.8-7.1l-12.7-1.9l-3.7-9l-1.8-17c0,0-4.2-11.2-15.5-5.9c-11.3,5.3-43.5,27.8-64.3,30.8
		L350.3,106.1z"/>
	<path class="st0" d="M448.9,241.3c0.7,4.9,1.3,9.7,1.9,14.5c0.3,4.8,1,9.5,2.1,14.1c1.2,4.1,4.4,7.7,7.9,8c3.5,0.2,7.4-2.4,11-5.4
		c3.5-2.6,6.3-6.2,7.9-10.3c1.1-4.4,1.4-9,0.7-13.5c-0.1-1.1-0.2-2.1-0.4-3.2c-0.2-0.7-0.3-0.8-1.1-1.1c-1.1-0.2-2.2-0.2-3.3-0.1
		c-1.3,0-2.6-0.1-3.8-0.3c-4.7-1.2-9.6-2.1-14.4-2.7c4.9-1.1,10,0,14.7,0c1.2,0,2.3,0,3.5-0.1c1.3-0.2,2.7-0.3,4-0.3
		c0.9,0.1,1.8,0.4,2.5,1c0.8,0.6,1.3,1.4,1.6,2.3c0.4,1.3,0.8,2.6,0.9,4c1.2,5.1,1.2,10.4,0,15.6c-1.8,5.1-5,9.6-9.4,12.9
		c-2,1.7-4.2,3.2-6.5,4.4c-2.6,1.5-5.6,2.1-8.5,1.8c-3-0.5-5.8-2.1-7.7-4.4c-1.8-2.2-3-4.7-3.5-7.4c-0.5-2.5-0.7-5.1-0.7-7.7v-7.4
		C448.5,251,448.6,246.1,448.9,241.3z"/>
	<path class="st0" d="M456.2,279.4c-2.8,5.5-4.8,11.4-5.8,17.6c-0.7,6,1.3,11.8,3.1,17.8c1.9,6,3.5,12.2,4.8,18.4
		c1.3,6.2,2.3,12.4,3.4,18.6h-5.4c1.1-6.7,3.4-13.2,6.6-19.2c3.1-5.9,6.4-11.4,9.1-17.2c1.4-2.8,2.5-5.8,3.5-8.8c0.9-3,1.2-6,1-9.1
		c-0.4-6.4-2.4-12.7-5.8-18.1c4.4,5,7.3,11.2,8.3,17.8c0.6,3.4,0.5,6.9-0.2,10.3c-0.7,3.3-1.6,6.6-2.9,9.8c-2.4,6.2-5.7,12-8.4,17.8
		c-2.9,5.5-4.8,11.5-5.8,17.6l-2.4,19.2l-2.9-19.1c-0.9-6.2-1.9-12.4-3-18.5c-1.1-6.1-2.3-12.2-3.7-18.3c-1.4-6.1-3.1-12.7-1.6-19.3
		c0.8-3.1,1.8-6.1,3.3-9C452.7,284.7,454.3,282,456.2,279.4L456.2,279.4z"/>
	<path class="st0" d="M421.3,141.2c-0.4-1.4-0.5-2.9-0.2-4.4c0.2-1.5,0.8-2.9,1.6-4.1c1.7-2.7,4.4-4.6,7.6-5.4
		c2.9-0.7,5.9-0.6,8.8,0.1c1.4,0.4,2.7,0.9,4,1.5c1.2,0.7,2.4,1.5,3.5,2.3c-1.4,0.2-2.7,0.3-4.1,0.3c-1.3,0.1-2.6,0.1-3.8,0
		c-2.3,0.1-4.6,0.4-6.9,0.9c-2.1,0.5-4,1.4-5.6,2.7C424,136.8,422.4,138.8,421.3,141.2L421.3,141.2z"/>
	<path class="st0" d="M432.8,145.7c2.9-1.3,4-5.1,2.4-8.5c-1.5-3.4-5.1-5-8-3.7c-2.9,1.3-4,5.1-2.4,8.5c0.6,1.6,1.8,2.8,3.3,3.5
		C429.6,146.2,431.3,146.3,432.8,145.7L432.8,145.7z"/>
	<path class="st0" d="M385.2,157.8c2.3-0.7,3.4-3.9,2.4-7.2c-1-3.3-3.6-5.4-5.9-4.8c-2.3,0.7-3.4,3.9-2.5,7.2
		C380.2,156.3,382.9,158.4,385.2,157.8z"/>
	<path class="st0" d="M376.6,154.4c-0.1-1.9,0.2-3.8,0.9-5.6c0.4-1,0.9-1.9,1.6-2.7c0.7-0.8,1.6-1.4,2.6-1.8
		c0.5-0.2,1.1-0.3,1.6-0.3c0.6,0,1.1,0.1,1.6,0.3c1,0.4,1.9,0.9,2.7,1.6c0.7,0.7,1.4,1.4,1.9,2.2c0.5,0.8,0.9,1.6,1.3,2.5
		c-0.8-0.5-1.6-1-2.3-1.6l-2.2-1.4c-0.6-0.4-1.2-0.7-1.9-0.8s-1.4-0.1-2.1,0.1c-1.4,0.6-2.5,1.7-3.3,3
		C378.6,151.2,377.6,152.8,376.6,154.4z"/>
	<path class="st0" d="M411.4,201.3c4.1-2,8.2-3.6,12-5.4c2-0.8,3.9-1.7,5.8-2.7c1.9-1,3.8-1.8,5.6-2.7l5.4-2.7l-1.6,5.6
		c-0.5,1.6-1.2,3.2-2.2,4.6c-0.9,1.3-2,2.5-3.3,3.5c-1.2,1-2.6,1.8-4,2.4c-1.4,0.6-2.9,1-4.4,1.1c1.1-0.9,2.2-1.9,3.3-2.9
		c0.9-1,1.8-2,2.5-3.1c0.7-1,1.4-2.1,1.9-3.3c0.5-1,0.9-2.1,1.1-3.3l3.9,2.7c-3.9,2.4-8.2,4.2-12.6,5.2
		C420.5,201.5,415.9,201.8,411.4,201.3L411.4,201.3z"/>
	<path class="st0" d="M410,130.9c0.2-2.3,0.8-4.5,2-6.5c1.1-2.1,2.6-3.9,4.5-5.4c1.9-1.5,4.1-2.6,6.5-3c2.4-0.5,5,0.1,7,1.5
		c-2,0.7-3.8,1.5-5.6,2.6c-1.6,1-3.1,2.1-4.5,3.3C416.8,126,413.5,128.6,410,130.9L410,130.9z"/>
	<path class="st0" d="M388.2,139.6c-2.5,0.5-5,1.2-7.4,2.1c-1,0.4-2,0.9-2.9,1.4c-1.1,0.6-2.3,1.4-4,2.2c-0.4-1.7-0.1-3.5,0.8-5
		c0.9-1.6,2.3-2.9,4.1-3.6c1.7-0.7,3.6-0.8,5.4-0.3c0.9,0.2,1.7,0.6,2.4,1.2C387.2,138.1,387.8,138.8,388.2,139.6L388.2,139.6z"/>
	<path class="st0" d="M449.6,523.1c-1.2-1.7-2.9-3-4.8-3.7c-1.9-0.8-4-1.1-6-0.8c-4.2,0.6-8.3,1.6-12.5,2.4
		c-2.2,0.4-4.3,0.7-6.5,0.8h-6.4c-4.2,0-8.4,0.3-12.6,0.7c-2,0.2-4,0.6-6,1.1c-1.7,0.3-3.2,1.1-4.5,2.2c-0.2,0.2-0.4,0.5-0.5,0.8
		c-0.1,0.3-0.2,0.7-0.3,1c-0.1,0.7,0,1.3,0.3,1.9c0.7,1.4,2,2.5,3.5,3.1c1.7,0.8,3.5,1.2,5.4,1.2c1,0,1.9,0,2.9,0h3.4
		c2.3,0,4.6,0.3,6.9,0.9c2.4,0.5,4.7,1.4,6.8,2.7l3.8,2.4l-4.2,2.1c-10.6,5.4-21.1,11.2-31.1,17.5c-5,3.1-9.8,6.6-14.3,10.3
		c-2.2,1.8-4.1,3.8-5.7,6.1c-1.7,2.4-3.2,4.9-4.6,7.4c-1.4,2.5-2.5,5.1-3.3,7.8c-0.3,1.1-0.4,2.3-0.3,3.4v0.2c-0.8,0,0,0,0.3-0.4
		c2.1-1.9,4.1-4,6-6.2c2-2.3,4-4.5,6.1-6.8c2.1-2.3,4.4-4.4,6.8-6.2c2.6-1.7,5.3-3.1,8.2-4.2c5.5-2.4,11.2-4.5,16.9-6.4
		c-5.4,2.5-10.8,5-16.2,7.8c-2.6,1.3-5.1,2.9-7.5,4.6c-2.2,2-4.2,4.1-6.1,6.3c-1.9,2.3-3.7,4.6-5.6,7c-1.8,2.5-3.9,4.9-6.2,7.1
		c-0.4,0.3-0.8,0.6-1.3,0.8c-0.3,0.2-0.6,0.3-1,0.4c-0.5,0.1-1,0.1-1.5,0c-0.7-0.2-1.3-0.5-1.9-1.1c-0.5-0.5-0.9-1.1-1.1-1.8
		c-0.4-1.8-0.4-3.6,0-5.4c0.7-3.1,1.8-6.1,3.3-9c1.4-2.8,2.9-5.5,4.7-8.2c1.8-2.6,4-5,6.4-7.2c4.6-4,9.5-7.7,14.7-11
		c10.2-6.5,20.8-12.4,31.7-17.8l-0.3,4.5c-1.6-0.9-3.3-1.6-5-2c-1.9-0.5-3.8-0.8-5.7-0.8h-3c-1.2,0.1-2.3,0.1-3.5,0
		c-2.4-0.1-4.8-0.7-7.1-1.8c-2.5-1.1-4.5-3.1-5.6-5.6c-0.6-1.4-0.7-2.9-0.5-4.3c0.2-1.5,0.9-2.8,1.8-4c1.9-1.7,4.3-2.9,6.8-3.3
		c2.2-0.5,4.3-0.8,6.5-0.9c4.3-0.2,8.7-0.2,13,0l6.4,0.3c2.1,0,4.1-0.1,6.2-0.3c4.2-0.4,8.4-1.1,12.7-1.5c2.2-0.3,4.5,0.2,6.4,1.3
		C446.8,519.9,448.4,521.3,449.6,523.1L449.6,523.1z"/>
	<path class="st0" d="M364.3,594.3c6.1-4.6,12.5-8.7,19.3-12.2c0.9-0.4,1.9-0.8,2.9-1.2c1-0.3,2-0.5,3-0.7c1.9-0.3,3.9-0.5,5.8-0.6
		c3.8-0.3,7.5-0.3,11.2-0.6c3.4-0.1,6.7-0.8,9.8-2.1c3.5-1.7,7.1-3.2,10.8-4.2c7.3-2.2,14.8-3.8,22.3-4.7c-6.9,3.3-13.9,6-20.8,8.9
		c-3.4,1.3-6.6,2.9-9.8,4.6c-1.9,1-4,1.8-6.1,2.1c-2,0.4-3.9,0.6-5.9,0.7c-3.8,0.2-7.6,0.2-11.4,0H390c-1.7,0-3.3,0.4-4.9,1
		C378.1,588,371.3,591.4,364.3,594.3z"/>
	<path class="st0" d="M365.1,589.1c-0.6,0.2-1.3,0.3-1.9,0.4c-0.3,0-0.6,0.1-0.8,0.2l0,0c-0.1,0.1-0.2,0.2-0.2,0.3
		c-0.7,1.1-1.4,2.1-2.3,3c0-0.7,0.1-1.4,0.3-2c0.2-0.6,0.5-1.2,0.9-1.8c0.1-0.2,0.3-0.3,0.4-0.5c0.2-0.2,0.4-0.3,0.7-0.3
		c0.4,0,0.7,0,1.1,0C363.9,588.5,364.5,588.8,365.1,589.1L365.1,589.1z"/>
	<path class="st0" d="M391.8,524.5c0,1,0,2.2,0.5,2.2c0.7,0.1,1.4,0,2.1-0.2c1.9-0.5,3.8-0.8,5.7-1c-1.4,1.6-3.3,2.7-5.4,3.1
		c-0.5,0.1-1.1,0.1-1.6,0.1c-0.4,0-0.7-0.1-1-0.2c-0.3-0.1-0.6-0.3-0.9-0.6c-0.2-0.3-0.4-0.6-0.4-0.9c-0.1-0.3,0-0.7,0.1-1
		C391,525.3,391.4,524.8,391.8,524.5z"/>
	<path class="st0" d="M498.2,104.6c-1.1-0.6-2.4-0.9-3.6-0.9c-0.9,0.2-1,1.3-1.1,2.5c0.1,1.3,0.2,2.6,0.4,3.8c0.2,1.3,0.4,2.7,0.6,4
		c0.4,2.7,0.8,5.3,1.3,7.9c0.2,1.3,0.5,2.7,0.8,3.9c0.2,1.3,0.8,2.5,1.6,3.5c-1.4-0.4-2.2-1.9-2.9-3c-0.6-1.2-1.2-2.5-1.6-3.9
		c-0.9-2.7-1.5-5.4-1.9-8.2c-0.4-2.8-0.6-5.6-0.3-8.4c0-0.4,0.1-0.8,0.2-1.1c0.1-0.4,0.3-0.8,0.5-1.1c0.2-0.4,0.6-0.8,1-1
		c0.4-0.2,0.9-0.4,1.3-0.4c0.7,0.1,1.5,0.4,2.1,0.8C497.2,103.5,497.7,104,498.2,104.6z"/>
	<path class="st0" d="M61.9,319.4l12.3,3.4c3.9,1.1,8.2,2.5,12.1,3.8c8.1,2.6,16.2,5.4,24.3,8.3l-0.5-0.2c14.5,3.2,28.2,9.3,40.2,18
		c6,4.3,11.6,9,16.9,14.1c5.3,5.1,10.1,10.7,14.4,16.7l-5.1,3.1c-2.7-5.6-5.2-11.3-8.2-16.8l-4.9-8l-2.5-4c-0.8-1.3-1.9-2.4-2.7-3.7
		c-2-2.4-3.9-4.9-5.9-7.2c-2.1-2.3-4.3-4.5-6.7-6.5c-1.2-1-2.3-2.1-3.4-3.1c-1.2-1-2.5-1.8-3.7-2.7c-2.5-1.8-5-3.6-7.6-5.2
		c-10.5-6.3-21.6-11.4-33.1-15.4c-5.8-1.9-11.7-3.4-17.7-4.5c-6-1.1-12.1-1.6-18.2-1.7l1.6-1.7C63,310.1,62.4,314.5,61.9,319.4z
		 M61.3,319.9c-0.5-4.3-1.1-9-1.5-13.9c0-0.4,0.1-0.8,0.3-1.1c0.3-0.3,0.6-0.5,1-0.6h0.2c12.9-1.8,25.9-0.7,38.4,3.1
		c12.5,3.6,24,9.7,34,18c2.4,2.1,4.7,4.3,7.1,6.5c2.4,2.1,4.6,4.3,6.7,6.7l3.3,3.5c1.2,1.1,2.3,2.2,3.3,3.4c2,2.5,4,4.9,6.1,7.3
		c1,1.2,2.1,2.4,3,3.7l2.7,3.8l5.7,7.6c3.5,5.3,6.8,10.8,10.2,16.2c0.4,0.6,0.5,1.4,0.4,2.1c-0.1,0.7-0.5,1.4-1.1,1.8
		c-0.6,0.4-1.4,0.7-2.1,0.6c-0.7-0.1-1.4-0.4-1.9-1l-0.4-0.4c-4.6-5.2-9.5-10.1-14.7-14.7c-5.2-4.6-10.7-8.8-16.5-12.7
		c-2.9-1.9-5.8-3.7-8.8-5.4c-1.5-0.9-3.1-1.6-4.6-2.4c-1.5-0.8-3-1.6-4.6-2.3l-4.7-2.2l-4.8-1.9l-2.4-0.9l-2.5-0.8l-4.9-1.6
		l-0.5-0.2c-7.8-3.4-15.6-6.9-23.4-10.5l-11.7-5.6C68.8,323.7,64.9,321.8,61.3,319.9L61.3,319.9z"/>
	<path class="st0" d="M309.5,558.7c-0.4-5-0.7-10-1.2-14.9c-0.2-2.4-0.5-4.9-0.8-7.3c-0.4-2.7-0.4-5.5,0-8.2
		c0.8-5.4,3.5-10.4,7.7-14c1.2-1,2.6-1.5,4.1-1.6c1.5,0.2,2.8,0.8,3.9,1.8c2,1.8,3.6,3.9,4.7,6.3l-1.8,0.3c0.2-3.5,1.7-6.9,4.3-9.3
		c1.6-1.2,3.4-1.9,5.4-2.1c1.8-0.1,3.7,0.1,5.4,0.8c1.5,0.6,3,1.3,4.4,2c0.4,0.2,0.9,0.3,1.3,0.3c0.3,0,0.6-0.1,0.9-0.3
		c0.5-0.4,1-0.7,1.5-1.1l1.8-1.5c1.4-1.4,3.1-2.4,5-3c1.3-0.4,2.6-0.4,3.9,0c1.1,0.4,2.1,0.9,2.9,1.6c1.6,1.4,2.4,2.4,3.5,3.3
		c0.7,0.8,1.7,1.4,2.7,1.8c1.3,0.2,2.6,0.2,3.8,0h1.2c0.5-0.1,1.1-0.1,1.6,0c0.7,0,1.4,0.2,2,0.5c0.7,0.4,1.3,1,1.6,1.8
		c0.3,0.8,0.5,1.6,0.7,2.5c0.1,0.5,0.4,1.1,0.7,1.5c1,1,2.1,1.8,3.4,2.4c1.4,0.8,2.7,1.5,4.1,2.4c0,0.1,0,0.1,0,0.2
		c0,0.1,0,0.1,0,0.2h-0.1h-0.1c-1.6-0.3-3.1-0.7-4.6-1.1c-1.7-0.3-3.4-1-4.8-2c-0.8-0.7-1.4-1.5-1.8-2.4c-0.2-0.7-0.5-1.3-0.9-1.9
		h-0.5c-0.3,0-0.5,0-0.8,0.1l-1.2,0.3c-1.8,0.5-3.6,0.6-5.4,0.4c-2-0.4-3.9-1.3-5.4-2.7c-1.4-1-2.7-2.4-3.4-3
		c-0.4-0.2-0.7-0.5-1.1-0.6c-0.2-0.1-0.5-0.1-0.8,0c-1.1,0.4-2.1,1-2.9,1.8l-1.9,1.4c-0.7,0.6-1.5,1.2-2.4,1.6
		c-1.1,0.6-2.4,0.8-3.6,0.7c-1.1-0.1-2.2-0.5-3.1-1c-1.6-0.9-2.7-1.6-4-2.2c-1.1-0.6-2.3-0.9-3.5-1c-1.2-0.1-2.5,0.2-3.6,0.7
		c-1.1,0.8-2.1,1.8-2.9,3c-0.7,1.2-1.2,2.5-1.4,3.9c0,0.1-0.1,0.2-0.1,0.3c-0.1,0.1-0.2,0.2-0.3,0.3c-0.1,0.1-0.2,0.1-0.3,0.1h-0.4
		c-0.2,0-0.3-0.1-0.4-0.2c-0.1-0.1-0.2-0.2-0.3-0.4c-0.8-2.2-2.2-4.2-4-5.8c-0.8-0.7-1.8-1.1-2.9-1.2c-1,0.2-1.9,0.8-2.5,1.6
		c-1.5,1.8-2.5,3.8-3.2,6c-0.7,2.2-1.2,4.5-1.4,6.8c-0.3,2.3-0.3,4.6-0.2,6.9c0.2,2.6,0.2,5.1,0.1,7.7c-0.1,5.1-0.8,10.2-2.2,15.1
		c0,0,0,0.1,0,0.1h-0.2c0,0.1,0,0.1,0,0.2C309.5,558.6,309.5,558.6,309.5,558.7z"/>
	<path class="st0" d="M391.4,535.9c0.8,3.2,0.8,6.5,0,9.6c-0.6,3.2-2.1,6.2-4.1,8.7c0.3-3.1,0.8-6.3,1.5-9.3
		C389.4,541.8,390.2,538.8,391.4,535.9z"/>
	<path class="st0" d="M327.2,521.1c0.9,2.2,1.1,4.6,0.6,6.9c-0.4,2.4-1.7,4.5-3.6,6c0.2-2.2,0.5-4.4,0.9-6.5
		C325.6,525.3,326.3,523.2,327.2,521.1L327.2,521.1z"/>
	<path class="st0" d="M145.2,271.2c0,0,15.6,57.7-60,134.4c0,0-22.8,27.9-42.4,45.4c-23.4,20.8,18.6-108.4,5.7-145
		c-12.8-36.6-23-129.6,10.5-153.1C92.6,129.5,129.6,278.3,145.2,271.2z"/>
	<path class="st0" d="M218.8,222.1c1-0.4,1.8-1.1,2.4-2c0.6-0.9,0.9-2,0.8-3.1c-1,1.9-2.5,3.5-4.5,4.5c0.1-0.4,0.2-0.8,0.1-1.2
		c-0.1-0.4-0.2-0.8-0.4-1.1c0.1,0.5,0,1.1-0.2,1.6c-0.2,0.5-0.6,0.9-1,1.2l2.4,0.3C218.7,222.4,219,222.3,218.8,222.1"/>
	<path class="st0" d="M180.1,387.9c3.8,3.4,7.5,6.7,11.4,9.8c3.9,3.1,7.9,6.2,12,9c8.1,5.6,16.6,10.7,25.5,15l3.3,1.6l-1.5,3.6
		c-5.1,11.4-12.9,21.3-22.9,28.8c-9.7,7.5-20.7,13.1-32.5,16.6c-11.5,3.4-23.4,5.5-35.3,6.2c-11.8,0.7-23.5,0.8-35.3,0.2l-2.6-0.1
		l0.3-2.2c0.6-4,0.7-8.1,0.5-12.1c-0.3-4.1-0.9-8.2-1.9-12.2c1.9,3.8,3.4,7.8,4.3,11.9c1,4.2,1.5,8.5,1.4,12.7l-2.3-2.3
		c11.6-1.2,23.2-2.2,34.6-3.8c11.3-1.5,22.4-3.9,33.2-7.4c10.6-3.5,20.6-8.6,29.6-15.1c8.9-6.4,16.3-14.8,21.5-24.5l1.7,5.2
		c-8.9-5.1-17.3-11.2-24.9-18.1c-3.8-3.4-7.4-7.1-10.8-10.9C186.1,396.1,183,392.1,180.1,387.9L180.1,387.9z"/>
	<path class="st0" d="M309.8,548.3l-2.5,24.8l1.6,0.2l2.5-24.8L309.8,548.3z"/>
	<path class="st0" d="M204.3,454c8.7,14,17.8,27.6,27.8,40.5c5,6.4,10.1,12.8,15.4,19c5.4,6.1,10.8,12.2,16.5,18
		c5.7,5.8,11.4,11.4,17.6,17c6.1,5.6,12.2,11.1,17.8,17.4c5.8,6.1,10.6,13.1,14.4,20.6c3.8,7.5,5.8,15.7,5.8,24.1
		c-1.3-8-4.2-15.7-8.6-22.6c-4.3-6.8-9.5-13-15.3-18.6c-5.8-5.6-12-11-18.2-16.3c-6.2-5.4-12.3-11.1-18.1-17
		c-5.8-5.9-11.4-12.1-16.6-18.6c-5.2-6.5-10.2-13.1-14.8-20C218.6,483.8,210.7,469.2,204.3,454L204.3,454z"/>
	<path class="st0" d="M359.4,598.2l-8.7,13.7l-8.8,13.7c-5.9,9.1-11.8,18.2-17.8,27.2l0.1-0.2c-1.5,3.1-3.9,5.8-6.8,7.7
		c-2.8,1.9-6,3.1-9.4,3.8c-3.3,0.6-6.6,0.7-9.9,0.2c-3.2-0.4-6.4-1.1-9.5-2.2c-6-2.2-11.7-5.1-17-8.6c-5.3-3.3-10.2-7-15.3-10.6
		c-19.9-14.7-38.6-30.9-55.9-48.6c-17.3-17.7-33.3-36.6-47.8-56.6c-14.4-20-27.3-41.1-38.5-63.1c13,20.8,27.1,40.9,42.1,60.3
		c15.1,19.2,31.3,37.6,48.6,54.9c4.4,4.2,8.7,8.6,13.2,12.7l6.7,6.2l6.9,6.1c2.3,2,4.6,4,6.9,6l7,5.9l7.2,5.7l3.6,2.8l3.7,2.7
		c4.9,3.7,9.8,7.4,14.7,10.7c4.9,3.4,10.1,6.2,15.6,8.4c2.7,1,5.5,1.8,8.3,2.3c2.8,0.5,5.6,0.5,8.4,0.1c2.7-0.3,5.3-1.3,7.6-2.7
		c2.3-1.5,4.2-3.5,5.7-5.8v-0.2c6.3-8.7,12.7-17.4,19.2-26.1l9.7-13.1L359.4,598.2z"/>
	<path class="st0" d="M49.2,337.5C43.3,366.3,38,395.1,33.9,424c-0.9,7.3-1.9,14.5-2.9,21.8l-2.5,21.8c-0.7,7.3-1.4,14.5-2.1,21.8
		l-1.6,21.9l-1.3,21.9L22.5,555L22,576.9c0,7.3,0,14.6,0,21.9c0.2,29.3,1.5,58.5,3.4,87.9c-5.2-29-8.5-58.3-9.8-87.7
		c-0.3-7.3-0.5-14.7-0.7-22.1l-0.1-22.1l0.6-22.1l1.2-22.1l1.9-22c0.8-7.3,1.6-14.7,2.4-22l3.1-21.9c1.2-7.3,2.4-14.5,3.7-21.8
		C32.9,394,40.1,365.5,49.2,337.5L49.2,337.5z"/>
	<path class="st0" d="M217.5,607.4c2,7,3.5,13.9,5,20.9c1.5,7,2.8,13.9,4.1,20.9c1.3,7,2.6,13.9,3.7,21c1.1,7,2.2,14.1,2.8,21.3
		c-3.1-6.5-5.8-13.2-7.8-20.2c-2.1-6.9-3.8-13.9-5.1-20.9c-1.3-7.1-2.2-14.2-2.8-21.4C216.9,621.8,216.9,614.6,217.5,607.4
		L217.5,607.4z"/>
</g>
</svg>
