<?xml version="1.0" encoding="utf-8"?>
<!-- Generator: Adobe Illustrator 23.1.0, SVG Export Plug-In . SVG Version: 6.00 Build 0)  -->
<svg version="1.1" id="Calque_1" xmlns="http://www.w3.org/2000/svg" xmlns:xlink="http://www.w3.org/1999/xlink" x="0px" y="0px"
	 width="700px" height="700px" viewBox="0 0 700 700" style="enable-background:new 0 0 700 700;" xml:space="preserve">
<style type="text/css">
	.st0{fill:#36749D;}
</style>
<g>
	<path class="st0" d="M563,297.1c2.3-13.6,2.3-27.5,0-41.2c-2.2-13.5-6.7-26.4-13.3-38.4c-6.5-11.7-15.1-22.2-25.4-30.8
		c-10.1-8.6-21.7-15.3-34.2-19.7c-12.4-4.5-25.4-6.1-38.7-6c-6.6,0.1-13.3,0.5-20,1.2c-6.7,0.7-13.4,1.7-19.9,3
		c-13.1,2.6-25.8,6.4-37.1,12.3c-11.3,5.9-21.1,13.8-28.1,23.8c-0.8,1.2-1.9,2.2-3.2,2.9s-2.7,1.1-4.1,1.1c-1.4,0.1-2.9-0.2-4.2-0.8
		c-1.3-0.6-2.5-1.5-3.4-2.6l-0.3-0.3c-4.2-4.9-9.1-9.1-14.6-12.4c-5.9-3.5-12.1-6.5-18.5-8.8c-6.6-2.5-13.6-4.8-20.7-7.1
		c-13.4-4.3-27.2-6.8-41.2-7.6c-6.8-0.4-13.6-0.2-20.4,0.6c-0.8,0.1-1.6,0.3-2.4,0.4c-0.8,0.1-1.6,0.2-2.5,0.4
		c-1.7,0.3-3.4,0.7-5.1,1c-3.4,0.8-6.8,1.6-10.1,2.6c-6.6,1.9-13,4.4-19.2,7.3c-3,1.5-6.1,3.1-9,4.8c-2.9,1.7-5.9,3.7-8.2,5.4
		c-5,3.9-9.3,8.5-13,13.7c-1.9,2.7-3.7,5.5-5.3,8.4c-1.6,2.9-3.1,5.9-4.5,9.1c-2.8,6.3-5,12.8-6.8,19.4c-3.6,13.4-5.4,27.3-5.5,41.1
		c0.2,13.9,2.2,27.6,6.1,40.9c4,13.5,9.4,26.6,16.2,39c1.7,3.1,3.4,6.2,5.2,9.3c0.9,1.5,1.9,3,2.8,4.6c0.9,1.5,1.9,3,2.9,4.5
		c3.9,6,8.1,11.9,12.5,17.7c8.7,11.5,18.3,22.7,28.1,33.6c9.9,11,20.1,21.8,30.4,32.6c20.5,21.7,41,43.3,62.4,63.7
		c10.7,10.2,21.7,20,33,29.4c11.3,9.4,23,18.2,35.2,26.3l-9.5,0.4c17.8-12.9,35.6-25.8,53.1-39c8.7-6.6,17.4-13.3,25.9-20.1
		c8.5-6.8,17-13.8,25.2-20.9c8.3-7.1,16.4-14.4,24.3-22c7.9-7.5,15.7-15.2,23.1-23.2c15-16,28.8-33.1,41.3-51.2
		c-10.8,19.3-23.2,37.7-37.1,54.9c-6.9,8.6-14.2,17-21.7,25.2c-7.5,8.2-15.2,16.1-23.2,23.8c-8,7.7-16.1,15.3-24.3,22.6
		c-8.3,7.4-16.7,14.6-25.1,21.7c-16.9,14.2-34.3,27.9-51.5,41.6c-1.3,1-2.9,1.6-4.5,1.7c-1.7,0.1-3.3-0.3-4.7-1.2l-0.3-0.2
		c-13-8-25.6-16.7-37.7-26c-12.1-9.3-23.7-19.1-35-29.2c-11.3-10.1-22.2-20.5-33-31.1c-10.8-10.5-21.3-21.2-31.8-31.9
		c-10.5-10.7-21-21.4-31.4-32.5c-10.4-11.1-20.4-22.6-29.9-34.8c-4.7-6.1-9.3-12.4-13.6-18.9c-4.3-6.5-8.4-13.1-12.2-20
		c-7.6-13.9-13.7-28.5-18.2-43.7c-4.6-15.4-7-31.4-7.2-47.5c0-8,0.6-16.1,1.7-24c0.5-4,1.2-7.9,2-11.8c0.8-3.9,1.7-7.8,2.8-11.7
		c4.3-15.5,10.6-30.7,20.5-44.4c5-7,11.1-13.3,18-18.6c3.4-2.5,6.9-4.8,10.6-6.9c3.6-2,7.2-3.9,10.9-5.7c7.4-3.4,15-6.2,22.8-8.3
		c3.9-1.1,7.8-2,11.7-2.8c2-0.4,3.9-0.8,5.9-1.1c0.9-0.2,2-0.3,3-0.5c1-0.2,2.1-0.3,3.1-0.4c16.6-1.8,32.6-0.2,48.1,2.9
		c7.8,1.6,15.4,3.8,22.9,6.3c7.1,2.5,14.3,5,21.6,8c7.5,3,14.8,6.8,21.6,11.2c7.2,4.7,13.6,10.4,18.9,17.2l-15.3,0.3
		c4.7-6.2,10.2-11.8,16.3-16.5c6-4.6,12.6-8.6,19.5-11.8c13.6-6.4,27.9-10.1,42.2-12.2c7.1-1.1,14.3-1.8,21.4-2.2
		c7.2-0.5,14.4-0.6,21.6-0.3c7.3,0.3,14.6,1.1,21.7,2.5c7.2,1.4,14.3,3.6,21.1,6.4c27,11.3,48.9,32.2,61.3,58.7
		c6,12.9,9.7,26.8,10.9,40.9C567.9,269.4,566.7,283.5,563,297.1z"/>
	<path class="st0" d="M186.2,550.4c13.1-19.8,26.5-39.2,40.1-58.6c13.6-19.4,27.3-38.6,41.2-57.8l10.4-14.4l10.5-14.3
		c7-9.6,14-19.1,21.1-28.5c7.1-9.5,14.1-18.9,21.2-28.4c7.1-9.5,14.2-18.9,21.4-28.3c1.8-2.4,4.5-4,7.5-4.4c3-0.4,6,0.4,8.4,2.2
		l0.2,0.2c8.9,6.7,17.8,13.2,26.7,20l26.6,20.1l26.4,20.2c8.8,6.7,17.6,13.5,26.4,20.3l-17.8,2.8l15.3-22.2l15.4-22l15.5-22l15.6-22
		l0.2-0.2c0.9-1.2,2-2.2,3.2-3c1.3-0.8,2.7-1.3,4.1-1.6c1.5-0.3,3-0.2,4.4,0.1c1.5,0.3,2.8,0.9,4,1.8l0.3,0.2
		c10.6,8.1,21.2,16.3,31.8,24.4c10.6,8.1,21.1,16.4,31.6,24.6l-14,2.6l17.6-26.1l17.7-26l17.9-25.9c6-8.6,12-17.2,18.1-25.7
		c0.7-1,1.7-1.6,2.9-1.9c1.2-0.2,2.4,0,3.4,0.6c1,0.6,1.7,1.6,2,2.8c0.3,1.2,0.1,2.4-0.5,3.4c-5.1,9.2-10.3,18.3-15.4,27.4
		l-15.6,27.3l-15.8,27.2l-15.9,27.1c-0.6,1.1-1.5,2-2.4,2.7c-1,0.7-2.1,1.3-3.3,1.6c-1.2,0.3-2.4,0.4-3.7,0.2
		c-1.2-0.2-2.4-0.6-3.5-1.2l-0.6-0.4l-0.5-0.3c-10.9-7.7-21.9-15.3-32.8-23c-10.9-7.7-21.8-15.4-32.7-23.2l16.3-2.7l-14.9,22.4
		l-15,22.4l-15.1,22.3l-15.2,22.2c-1.9,2.7-4.7,4.6-7.9,5.2c-3.2,0.6-6.6-0.1-9.3-1.9l-0.5-0.3l-0.1-0.1
		c-8.8-6.7-17.6-13.5-26.4-20.3l-26.3-20.4l-26.2-20.6c-8.8-6.8-17.4-13.8-26.1-20.7l16.1-2c-7.3,9.2-14.9,18.4-22.4,27.5
		c-7.5,9.1-15,18.3-22.5,27.4c-7.6,9.1-15.1,18.2-22.7,27.3l-11.4,13.6l-11.5,13.5c-15.3,18.1-30.7,36-46.3,53.8
		C218,515.3,202.3,533,186.2,550.4z"/>
	<path class="st0" d="M692.8,298.8l3.7-97l-85.8,45.3L692.8,298.8z"/>
</g>
</svg>
