<?xml version="1.0" encoding="utf-8"?>
<!-- Generator: Adobe Illustrator 23.1.0, SVG Export Plug-In . SVG Version: 6.00 Build 0)  -->
<svg version="1.1" id="Calque_1" xmlns="http://www.w3.org/2000/svg" xmlns:xlink="http://www.w3.org/1999/xlink" x="0px" y="0px"
	 width="700px" height="700px" viewBox="0 0 700 700" style="enable-background:new 0 0 700 700;" xml:space="preserve">
<style type="text/css">
	.st0{fill:#36749D;}
	.st1{fill:#36749D;stroke:#36749D;stroke-width:0.1;stroke-linejoin:round;}
</style>
<g>
	<path class="st0" d="M220.9,369.6c-26.5-13.3-53.9-25-81.9-34.8c-6.9-2.8-13.9-5.4-20.7-8.5c-2.8-1.4-5.6-2.5-8.6-3.3
		c-0.8-0.2-1.2-0.3-1-0.3c0.4,0,0.7-0.1,1-0.3c0,0-0.8,1.5-1.6,4.2l-2.7,10c-1.8,6.9-3.6,13.6-4.9,20.5c-7.4,27.6-8.1,56.6-2.1,84.5
		c7.2,27.8,24.4,52.1,48.3,68.2c22.1,15.8,49.4,22.7,76.5,19.4c13.1-2.4,25.6-7,37.1-13.6c11.3-6,21.3-14.3,29.2-24.4
		c15.3-18.8,13.7-44.3-2.3-66.9C270,401.1,247.2,382.2,220.9,369.6z M222.1,367.3c13.2,6.8,26.5,13.2,39.8,20.4
		c13.7,7.1,26.5,15.8,38.1,26c13,11.2,21.7,26.5,24.5,43.3l0.9,6.7c0.1,2.2-0.1,4.4-0.2,6.7c-0.2,4.5-0.9,9-2.1,13.3
		c-2.4,8.6-6.3,16.7-11.6,23.8c-10.1,13.4-23.3,24.2-38.5,31.6c-14.5,7.5-30.4,12.2-46.6,14c-8.3,0.9-16.8,0.7-25.1-0.5
		c-8.1-1.2-16-3.3-23.6-6.2c-14.8-6-28.3-14.7-39.8-25.6c-22.2-21.2-38.5-47.6-47.5-76.7c-9.9-29-13.7-59.7-11.2-90.2
		c0.8-7.6,2-15.2,3.8-22.7c1-3.8,1.9-7.1,3-11.3c1.5-5.8,4.7-11.1,9.3-15c3.1-2.6,7-4.2,11.1-4.4c3.3-0.3,6.7,0.2,9.9,1.3
		c4,1.7,7.9,3.7,11.5,6.1c6.4,3.8,12.5,7.9,18.7,12C170.6,337.4,195.9,353.2,222.1,367.3z"/>
	<path class="st0" d="M262.2,525.7c-12.4-7.2-24-15.7-34.7-25.2c-10.7-9.4-20.7-19.5-30-30.4c-9.2-10.8-17.7-22.3-25.4-34.2
		c-7.9-12-14.4-24.7-19.4-38.1c10.5,9.5,20.5,19.6,30,30.1c9.5,10.3,18.8,20.6,27.8,31.3c9,10.6,17.9,21.3,26.6,32.3
		C246.1,502.4,254.5,513.8,262.2,525.7z"/>
	<path class="st0" d="M437.2,549.9c-1,9.9-2,19.8-3,29.6c-13.4,1.4-26.9,2-40.6,2.6c-15,0.7-29.7,1-44.7,0.7
		c-15-0.3-29.7-0.7-44.7-1.7c-12.9-0.9-26-2.1-39-3.5l-11.8-133.1c-2.1-23-4.4-46.1-6.5-69.1l-3.4-34.4l-3.4-34.4l-13.3-137.9
		L213.8,31c0.7,0,1,0,1.7,0.3h31.7l34.1,0.3l68.2,0.7c22.5,0.3,45,0.7,67.9,1c20.5,0.6,41.2,1.3,61.5,2.6
		c-4.2,44.3-7.8,88.3-10.7,132.3L461,281.5c2.2-0.1,4.4,0.1,6.4,0.6l11.7-113.1c4.8-46.1,8.5-92.1,12.3-138.2c0.3-3-2.4-5.7-5.5-6
		c-23.2-1.3-45.7-1.7-68.6-1.7c-22.5,0-45.3,0.3-67.9,0.7c-22.8,0.7-45.7,1.3-68.2,2.3l-34.1,1.7l-17,1l-8.5,0.7l-4.1,0.3h-2.1
		c-1,0-2.1,0.3-2.7,0.3l0.3,17.7c0,5.7,0,12,0.3,17.7l1,34.4c1,23.4,2.4,46.4,3.4,69.4c1.4,23.4,2.7,46.4,4.4,69.4l5.1,69.4
		c1.7,23,3.4,46.1,5.5,69.1c1.7,23,3.7,46.1,6.1,68.8c4.1,46.1,8.9,92.1,13.6,138.2c0.3,3,2.7,5.3,5.8,5.7
		c15.4,1.3,30.4,2.7,45.3,3.3c15,1,30.4,1,45.3,1c15.4,0,30.4-0.7,45.3-1.7c15-1,30-2.3,45-4.7c2.1-0.3,3.7-2,3.7-4
		c0.7-10.5,1.4-21.1,2.1-31.6C442.6,552,439.7,551.2,437.2,549.9z"/>
	<path class="st0" d="M440.3,590.5v55.4c0,17.4-14.7,31-32.7,31H284.7c-18.1,0-32.7-14-32.7-31v-29.4v-29.4
		C252,587.2,345.1,618.6,440.3,590.5z"/>
	<path class="st0" d="M283.4,192.2h157.8l-17.1,56.4H283.4L283.4,192.2L283.4,192.2z"/>
	<path class="st1" d="M272.2,68.1c0-0.1-0.1-0.1-0.1-0.1c-0.1,0-0.1,0-0.1,0.1v0l11.3,484.8c0,0.1,0,0.1,0.1,0.1
		c0.1,0,0.1,0,0.1-0.1v0l9.9-228.3c0.9-20.7,0.3-41.4-1.7-62L272.2,68.1z"/>
	<path class="st0" d="M366.1,350.3c12.4,6.9,24.2,14.6,35.6,23c11.4,8.1,22.1,17.4,32.7,26.6c20.9,18.9,40.1,39.5,57.5,61.6
		l-33.9,3.3c17.4-41,40-79.5,67.3-114.7c13.6-17.6,28.5-34.1,44.5-49.4c15.9-15.4,33.3-29.2,51.9-41.3
		c-10.9,19.4-22.5,37.9-33.7,56.3l-33,55.1c-21.4,36.6-41.4,73.4-61.2,111.1l-15.4,30.6l-18.5-27.5c-15-22.3-30.5-44.3-46.2-66.5
		l-23.7-33.6C381.8,373.2,373.9,362.2,366.1,350.3z"/>
</g>
</svg>
