<?xml version="1.0" encoding="utf-8"?>
<!-- Generator: Adobe Illustrator 23.1.0, SVG Export Plug-In . SVG Version: 6.00 Build 0)  -->
<svg version="1.1" id="Calque_1" xmlns="http://www.w3.org/2000/svg" xmlns:xlink="http://www.w3.org/1999/xlink" x="0px" y="0px"
	 width="700px" height="700px" viewBox="0 0 700 700" style="enable-background:new 0 0 700 700;" xml:space="preserve">
<style type="text/css">
	.st0{fill:#36749D;stroke:#36749D;stroke-width:0.2;}
	.st1{fill:#36749D;}
</style>
<g>
	<path class="st0" d="M200.9,110.2c-1.4,0.6-2.6,1.7-3.3,3c-0.2,0.7-0.3,1.5-0.3,2.2c0.1,0.8,0.3,1.5,0.6,2.2c1.3,2.8,3,5.5,4.5,8.3
		c3.1,5.5,6.2,11.1,9.4,16.5c6.3,11,13.1,21.6,19.8,32.4c13.5,21.4,27.4,42.5,40.7,64.1c6.8,10.7,13.2,21.6,19.5,32.6
		c6.3,11,12.5,22.1,18.3,33.3c11.8,22.5,22.3,45.6,31.4,69.3l-1.3-0.5c18.1-8.3,35.9-17.3,53.3-27c17.4-9.6,34.4-20,51.2-30.6
		l-0.6,1.9c-15.3-30.3-32.8-59.5-50.2-88.7c-17.3-29.3-35.1-58.5-52.5-87.8c-8.6-14.7-17.4-29.3-25.9-44l-6.4-11
		c-2.1-3.8-4.1-7.6-5.8-11.6c-1.8-3.8-3.8-7.4-6-10.9c-0.9-1.6-2.2-2.9-3.7-4c-0.8-0.2-1.6-0.3-2.3-0.2c-0.8,0.1-1.5,0.4-2.2,0.9
		c-7.1,3.7-12.8,10.7-20.3,14.7c-7.5,4-14.9,8.3-22.5,12C231.1,94.9,215.6,101.8,200.9,110.2z M200.9,109.8
		c29.2-17.3,61.9-28.5,87.3-52.1c1.1-0.6,2.2-1.1,3.4-1.4c1.4-0.4,2.9-0.2,4.3,0.4c2.1,1.3,3.8,3,5.1,5.1c2.6,3.5,4.8,7.3,6.7,11.2
		c2,3.9,3.7,7.6,5.9,11.1l6.7,10.9c9,14.5,17.5,29.2,26.2,43.8c17.5,29.2,34.8,58.5,51.9,87.9c17.2,29.4,33.7,59.3,48.6,89.9
		l0.6,1.2l-1.1,0.7c-17,10.2-34.4,20.4-52,29.7c-17.5,9.3-35.6,18.5-53.4,27.1l-0.9,0.4l-0.4-0.9c-9.5-23.4-20.5-46.2-32.8-68.3
		c-6.2-11-12.4-22-18.8-32.9l-19.4-32.5c-13.1-21.6-26.1-43.3-38.9-65.2c-6.4-10.9-12.6-22-18.8-33c-3.2-5.5-6.2-11.1-9.2-16.6
		c-1.5-2.8-3.1-5.5-4.4-8.4c-0.4-0.7-0.6-1.5-0.7-2.4c-0.1-0.8,0-1.7,0.3-2.4c0.8-1.5,2-2.7,3.5-3.4H200.9z"/>
	<path class="st1" d="M279.9,67.7c-8.4-15.3-16.7-30.2-26-44.6l5.7,1.6l-27.9,16.5l-27.5,16.6l-7,4.2c-1.8,1-3.4,2.2-5.1,3.4
		c0,0,0-0.4,0,0.6c0.4,1.1,0.8,2.3,1.3,3.4l3.1,7.5c4.2,10,8.8,19.7,13.7,29.5c-7.4-8.1-13.9-17-19.5-26.6c-1.4-2.4-2.8-4.8-4.1-7.3
		c-0.7-1.3-1.4-2.7-2-4.1c-0.4-1.1-0.6-2.2-0.7-3.4c0-1.4,0.4-2.7,1.1-3.9c1-1.7,2.4-3.1,4.1-4.2l3.4-2.3l6.5-4.5
		c9.1-6.1,18.3-12,27.8-17.4c9.5-5.4,19.1-10.5,28.9-15.3l3.9-1.9l1.8,3.5C269.6,34.4,275.8,50.8,279.9,67.7L279.9,67.7z"/>
	<path class="st1" d="M429.7,326.7c5.6,5.6,10.7,11.7,15.3,18.2c4.6,6.3,8.7,12.9,12.4,19.8c1,1.7,1.4,3.6,1.1,5.6
		c-0.2,1-0.7,1.9-1.3,2.7c-0.6,0.8-1.4,1.4-2.2,1.9l-5.1,2.7c-3.6,1.7-7,3.6-10.2,5.6c-6.6,4.2-12.8,8.9-18.6,14
		c-5.9,5.1-11.9,10.2-18.2,14.8l-4.7,3.5l-2.4,1.8c-1.3,0.9-2.7,1.6-4.2,2.1c-1.2,0.3-2.5,0.4-3.8,0.1c-1.3-0.2-2.4-0.8-3.5-1.5
		c-1.3-1.1-2.4-2.4-3.2-3.9l-2.8-5.1c-7.5-13.8-13.7-28.2-18.6-43.1l0.9-0.5c10.2,11.9,19.3,24.7,27.2,38.2l2.8,5.1
		c0.4,0.8,0.7,1,0.3,0.7c-0.3-0.2-0.5-0.3-0.9-0.4c-0.3-0.1-0.6-0.1-0.9,0c1.2-0.5,2.4-1.1,3.4-1.9l5.1-3.1
		c6.6-4.1,13.4-7.9,20.3-11.4c7-3.5,13.6-7.5,19.9-12.1c3.1-2.3,6.1-4.9,9-7.5l4.3-3.9c0.6-0.5,0.3-0.8,0,0c-0.3,0.8,0,0.8-0.6,0
		c-4.4-6.4-8.4-13.1-11.8-20.1c-3.7-7-6.7-14.2-9.2-21.8L429.7,326.7z"/>
	<path class="st1" d="M244.2,266.1c0.8,8.6,2.7,17,5.8,25.1c3.2,8.1,9.4,14.6,17.3,18.2c7.6,2.2,15.6,2.6,23.3,1.2
		c9.9-0.4,19.5-2.9,28.3-7.6c4.8-3.1,8.8-7.3,11.9-12.1c5.6-8.6,8.6-18.6,8.6-28.9c0-10.3-3-20.3-8.6-28.9
		c-5.6-8.6-13.6-15.3-23-19.4c-9.4-4.1-19.8-5.3-29.8-3.6c-1.5-0.4-3.2-0.5-4.7-0.2c-1.6,0.3-3,1-4.3,2c-8.7,5.8-15.7,14-20,23.6
		C244.5,245,242.9,255.6,244.2,266.1L244.2,266.1z"/>
	<path class="st1" d="M280.5,310.7c-22.1,20.4-38,46.6-45.8,75.7c-4.4,14.4-5.8,29.5-4.1,44.5c1.2,7.5,3.2,14.8,6,21.9
		c2.9,6.9,6.5,13.5,10.8,19.8c8.6,12.1,19.2,22.6,31.3,31.2c6.1,4,12.5,7.4,19.2,10.2c6.8,2.6,13.7,4.7,20.8,6.2
		c29.4,6.1,59.9,0.6,85.4-15.3l0.6,0.8c-22.2,22-56.6,30.6-88,25.1c-15.7-3.1-30.5-9.6-43.3-19.3s-23.3-22-30.7-36.2
		c-7.2-13.8-12.4-28.7-15.3-44c-1.4-7.7-2.3-15.5-2.7-23.3c-0.2-7.9,0.4-15.8,1.7-23.6c3.3-15.6,9.8-30.3,19.1-43.2
		c4.6-6.4,9.8-12.3,15.6-17.7c5.8-5.3,12.1-9.9,18.9-13.7L280.5,310.7z"/>
	<path class="st1" d="M414.1,592c8.8-7.6,17.5-14.2,25.8-21.3c8.3-7,16.5-14,24.5-21.2c8-7.2,15.9-14.7,23.8-22.2
		c7.9-7.6,16-15.3,25-22.5c-3.8,10.9-9.2,21.2-15.9,30.6c-6.6,9.3-14.2,17.9-22.7,25.5c-8.5,7.7-18,14.4-28.1,19.9
		C436.5,586.3,425.5,590.1,414.1,592L414.1,592z"/>
	<path class="st1" d="M244.9,247c-27.9,21.9-50.1,50.2-64.6,82.7c-14.1,32.1-19.8,67.2-16.5,102.1c1.2,17.3,4.6,34.3,10.2,50.8
		c5.4,16.3,13,31.8,22.7,46c9.8,14.1,21.4,26.9,34.6,37.9c6.6,5.5,13.6,10.5,20.9,15c7.2,5.1,15.3,5.1,20.3,17.6
		c-2.2,1.5-4.8,2.4-7.4,2.7c-2.6,0.3-5.3,0-7.8-0.8c-4.3-2-8.5-4.2-12.6-6.7c-8-4.8-15.6-10.1-22.7-16c-14.4-11.7-27-25.5-37.4-40.8
		c-10.4-15.4-18.5-32.3-24.2-50c-5.5-17.6-8.8-35.9-9.7-54.4c-2.5-37,5.1-74,21.9-107.1C189.1,293.4,214.1,266.2,244.9,247
		L244.9,247z"/>
	<path class="st1" d="M571.6,503c-2.3-0.1-4.7,0.1-7,0.4c-2,0.3-4,0.5-6,0.5l-13.4,0.3c-9,0-17.9,0-26.8,0
		c-17.9-0.3-35.6-0.7-53.6-1.4c-18-0.7-35.6-2.4-53.5-3.7c-17.9-1.3-35.6-2-53.6-1.9h-1.5v-1.5c-1.6-11.2-2.4-22.5-2.4-33.8v-2.7
		h2.8c20.3-0.6,41.2-0.9,61.8-0.8c20.6,0.1,41.2,0,61.8,0.6l15.3,0.5c5.1,0,10.2,0,15.3,0c10.4-0.6,20.9-0.6,31.3,0
		c5.4,0.4,10.7,1.2,15.9,2.6c2.7,0.8,5.1,1.4,7.7,2.5c1.6,0.6,3,1.5,4.2,2.7c1.1,1.2,1.9,2.5,2.6,4l0.8,1.9c0.2,0.5,0.3,1,0.4,1.5
		v1.2c0.1,1.3,0.1,2.7,0,4l-0.4,7.8l-0.4,7.8l-0.3,3.8v3.5c0,0,0,0-0.3,0C572,503,571.7,503.1,571.6,503z M572.6,503
		c0,0,0.3,0.3-0.7,0.5c-0.9,0.2-0.3-0.4-0.4-0.4v-0.3v-0.5v-1v-1.9l-0.4-3.9l-0.6-7.8l-0.7-7.7l-0.4-3.7v-0.8c0-0.4,0,0,0-0.3
		c-0.3-0.5-0.5-1.1-0.9-1.6c-0.4-0.9-1-1.7-1.7-2.3c-0.7-0.6-1.6-1-2.6-1.3c-2.1-0.6-5.1-1.2-7.2-1.6c-4.9-0.7-9.8-1.1-14.8-1.1
		c-10.2,0-20.3,1-30.5,1.7c-5.1,0.4-10.2,0.7-15.7,0.8h-15.3c-20.6-0.3-41.2-1.1-61.8-1.9c-20.6-0.8-41.2-1.8-61.8-3.2l2.9-2.7
		c-1,11-1,22.1,0,33.1l-1.6-1.5c17.9,0.6,35.6,0.8,53.7,0.3s35.6-0.9,53.7-0.4c18.1,0.6,35.6,1.6,53.6,3c9,0.8,17.9,1.6,26.8,2.6
		l13.4,1.6c2.4,0.3,5.1,0.7,7.4,1.2C568.9,502.5,570.8,502.9,572.6,503L572.6,503z"/>
	<path class="st1" d="M464.1,673.7c-14.1-28.5-30.7-55.6-49.6-81.2c-9.2-12.4-19.9-23.5-31.8-33.2c-10.8-9.4-24.6-14.8-38.9-15.3
		c-13.6,0-27.1,6.9-38.8,16.3c-11.9,9.8-22.7,20.9-32,33.2c-19.2,25.3-36.3,52.2-51.3,80.2c9.6-31,23.7-60.3,41.7-87.3
		c9.1-13.9,20-26.4,32.5-37.4c6.5-5.7,13.8-10.4,21.6-14.1c8.2-4,17-6.1,26.1-6.3c9,0,18,2,26.2,5.7c7.9,3.5,15.3,8.1,21.9,13.7
		c12.5,10.9,23.5,23.5,32.5,37.5C441.9,612.8,455.3,642.5,464.1,673.7z"/>
	<path class="st1" d="M448.9,637.9c22.2,0.5,44.5,0.8,66.7,0.7c22.2-0.1,44.5-0.8,66.6-1.5h3v3.1l0.6,37.3v3.1l-3.2,0.4
		c-25.8,2.7-51.7,3.8-77.6,3.3l-77.3,0.3h-77.3l-77.3-0.4l-77.2-0.4l-38.7-0.5h-19.3h-9.6c-1.6,0-3.2,0-5.1,0
		c-2.3-0.1-4.5-1-6.3-2.5c-0.9-0.8-1.6-1.9-2.1-3c-0.5-1.1-0.8-2.3-0.8-3.6c0-2,0-3.4,0-5.1v-24.3c0-1.1,0.2-2.1,0.4-3.2
		c0.4-1.3,1.2-2.5,2.2-3.4c1.8-1.3,4-1.9,6.3-1.8h5.1h9.7l19.3,0.5c25.7,0.7,51.5,1.2,77.2,2.2c-25.7,0.8-51.5,1.3-77.2,1.8
		l-19.3,0.4h-9.7c-3.1,0-7.1,0-7.6,0.7c-0.5,0.7-0.5,0.8-0.5,2.3v4.8l0.3,9.7l0.3,9.7c0,1.5,0,3.4,0,4.6c0,1.2,0.5,1.8,0.8,2.1
		c2.3,0.9,4.7,1.1,7.1,0.8h9.7h19.3l38.7-0.5l77.2-0.3l77.3-0.3l77.3,0.3l77.3,0.4c25.8,0,51.4,1.1,76.8-1.4l-3.1,3.5l0.5-37.3
		l3.1,3c-22.3,0.3-44.6-0.1-66.8-1C493.3,641.2,471.1,639.9,448.9,637.9z"/>
	<path class="st1" d="M364.5,574.1c2.5,2.7,4.4,5.8,5.6,9.3c2.9,6.4,4.3,13.4,4.1,20.4c-0.1,3.5-0.9,6.9-2.4,10
		c-1.5,3.1-3.6,5.9-6.2,8.2c-5.7,3.9-12.4,5.9-19.3,5.9c-8.7,1.2-17.6-0.3-25.4-4.4c-4.7-3-8.3-7.5-10.2-12.8
		c-1.3-4.3-1.7-8.8-1.1-13.2c0.6-4.4,2.2-8.6,4.7-12.4C323.9,570.1,350,559.7,364.5,574.1z"/>
</g>
</svg>
